.
 
http://www.scenetime.com    -   SceneTime [ We been having it ] !!!


How come you press harder on a remote control when you know the battery is dead? so you better seed to get speed ;)

        Seed back for speed


...................................NFO:.................................................General
Complete name                    : C:\Users\coop\Desktop\Empire.of.Assassins.2011.Dvd.Rip.Xvid.TCM.[DUBED]\E.O.A.TCM.avi
Format                           : AVI
Format/Info                      : Audio Video Interleave
File size                        : 871 MiB
Duration                         : 1h 32mn
Overall bit rate                 : 1 319 Kbps
Movie name                       : E.O.A.TCM
Encoded by                       : Cooperman
Writing application              : MEncoder version 4.1.5 building on 20101022
Copyright                        : TCM

Video
ID                               : 0
Format                           : MPEG-4 Visual
Format profile                   : Advanced Simple@L5
Format settings, BVOP            : 2
Format settings, QPel            : No
Format settings, GMC             : No warppoints
Format settings, Matrix          : Default (MPEG)
Codec ID                         : XVID
Codec ID/Hint                    : XviD
Duration                         : 1h 32mn
Bit rate                         : 1 194 Kbps
Width                            : 640 pixels
Height                           : 360 pixels
Display aspect ratio             : 16:9
Frame rate                       : 23.976 fps
Color space                      : YUV
Chroma subsampling               : 4:2:0
Bit depth                        : 8 bits
Scan type                        : Progressive
Compression mode                 : Lossy
Bits/(Pixel*Frame)               : 0.216
Stream size                      : 789 MiB (91%)
Writing library                  : XviD 1.2.1 (UTC 2008-12-04)

Audio
ID                               : 1
Format                           : MPEG Audio
Format version                   : Version 1
Format profile                   : Layer 3
Codec ID                         : 55
Codec ID/Hint                    : MP3
Duration                         : 1h 32mn
Bit rate mode                    : Constant
Bit rate                         : 112 Kbps
Channel(s)                       : 2 channels
Sampling rate                    : 48.0 KHz
Compression mode                 : Lossy
Delay relative to video          : 42ms
Stream size                      : 74.0 MiB (8%)
Alignment                        : Aligned on interleaves
Interleave, duration             : 24 ms (0.58 video frame)
Interleave, preload duration     : 504 ms
Writing library                  : LAME3.98.4
Language                         : English[Dubed]
Subs                             : No
Sample                           : Yes
 
http://www.imdb.com/title/tt1891794/

source file : Empire.of.Assassins.2011.NTSC.DVDR-STOCK
THANK YOU STOCK! :)


62x14.mb rars[main movie avi]
sample[avi]
snaps.n.thumbs
nfo
sfv
Enjoy the movie!
T.C.M@HUSHMAIL.COM

GREATINGS TO ALL THE P2P PLACES I LURK AT!